<svg xmlns="http://www.w3.org/2000/svg" viewBox="0 0 380.41 711"><defs><style>.cls-1{fill:#fff;}.cls-1,.cls-2{stroke:#000;stroke-miterlimit:10;stroke-width:0.5px;}.cls-2{fill:#b3b3b3;}.cls-3{font-size:98px;font-family:ArialMT, Arial;letter-spacing:-0.11em;}.cls-4,.cls-5{font-size:30px;font-family:Raleway-Thin, Raleway;font-weight:200;}.cls-4{letter-spacing:-0.01em;}.cls-5{letter-spacing:-0.01em;}</style></defs><g id="bracelet"><path class="cls-1" d="M550.41,73.36S602.58,53.07,649,54.52s95.65,15.94,95.65,15.94-29,271-26.09,349.28S746.06,727,746.06,727s-47.83,21.73-92.76,18.84-97.1-17.4-97.1-17.4S580.09,489.3,580.09,395.1,550.41,73.36,550.41,73.36Z" transform="translate(-459.17 -45.58)"/><path class="cls-1" d="M509.83,199.45S549,127,544.61,73.36c0,0,17.39-27.53,102.9-27.53S757.65,64.67,757.65,64.67s14.8,110.14,35.09,130.43c0,0-96,18.84-148.13,18.84S509.83,199.45,509.83,199.45Z" transform="translate(-459.17 -45.58)"/><path class="cls-1" d="M795.14,607.79s-41.87,70.92-39.57,124.67c0,0-18.43,26.85-103.87,23.59s-109.35-23-109.35-23S531.76,622.4,512.26,601.35c0,0,96.61-15.17,148.74-13.18S795.14,607.79,795.14,607.79Z" transform="translate(-459.17 -45.58)"/></g><g id="boitier"><rect class="cls-1" x="0.25" y="130.63" width="379.91" height="453.62" rx="80.8"/><rect class="cls-2" x="38.43" y="172.53" width="303.55" height="369.83" rx="65.21"/></g><g id="ecran"><text class="cls-3" transform="translate(59.96 329.78)">1O:1O</text><text class="cls-4" transform="translate(112.05 222.03)"><tspan xml:space="preserve">Lun.  24 oct.</tspan></text><text class="cls-5" transform="translate(137.72 511.45)">TiK•TaK</text></g></svg>